# xmcd
#
# Track frame offsets:
#	150
#	17633
#	32272
#	51407
#	75023
#	92097
#	110981
#	124519
#	143268
#	161181
#	174949
#	195113
#	205937
#
# Disc length: 3121 seconds
#
# Revision: 1
# Processed by: cddbd v1.5.2PL0 Copyright (c) Steve Scherf et al.
# Submitted via: audiograbber 1.81.03
#
DISCID=950c2f0d
DTITLE=The`Bonedaddys - Waterslide
DYEAR=2007
DGENRE=Blues
TTITLE0=Waterslide
TTITLE1=Making Roux
TTITLE2=Some People
TTITLE3=Blame It On The Moon
TTITLE4=Heartbreaker
TTITLE5=Oughta Give It Away
TTITLE6=Never Say Goodbye
TTITLE7=Trampoline
TTITLE8=Reverend Singer
TTITLE9=Vitamin D
TTITLE10=Louisville Flame
TTITLE11=Hula Girl
TTITLE12=Continental Drift
EXTD=
EXTT0=
EXTT1=
EXTT2=
EXTT3=
EXTT4=
EXTT5=
EXTT6=
EXTT7=
EXTT8=
EXTT9=
EXTT10=
EXTT11=
EXTT12=
PLAYORDER=
